# xmcd
#
# Track frame offsets:
#	150
#	13781
#	26282
#	37087
#	50008
#	70370
#	89058
#	110234
#	119978
#	137688
#	152248
#	165852
#
# Disc length: 2417 seconds
#
# Revision: 1
# Processed by: cddbd v1.4PL0 Copyright (c) Steve Scherf et al.
# Submitted via: audiograbber 1.81.03
#
DISCID=ae096f0c
DTITLE=Lynwood Slim and Junior Watson - Back To Back
DYEAR=1998
DGENRE=
TTITLE0=Much Later For You Baby
TTITLE1=Early Morning Blues
TTITLE2=Just As I Am
TTITLE3=Whoopin' And Hollerin'
TTITLE4=Too Late
TTITLE5=Happy Blues
TTITLE6=Best Wishes
TTITLE7=Young And Able
TTITLE8=Tough Duff
TTITLE9=Reach For Your Telephone
TTITLE10=Sittin' Here Drinkin'
TTITLE11=Get On The Right Track
EXTD=
EXTT0=
EXTT1=
EXTT2=
EXTT3=
EXTT4=
EXTT5=
EXTT6=
EXTT7=
EXTT8=
EXTT9=
EXTT10=
EXTT11=
PLAYORDER=
